<!--?xml version="1.0" encoding="utf-8"?-->
<!-- Generator: Adobe Illustrator 18.0.0, SVG Export Plug-In . SVG Version: 6.00 Build 0)  -->

<svg version="1.1" id="_x32_" xmlns="http://www.w3.org/2000/svg" xmlns:xlink="http://www.w3.org/1999/xlink" x="0px" y="0px" viewBox="0 0 512 512" style="width: 48px; height: 48px; opacity: 1;" xml:space="preserve">
<style type="text/css">
	.st0{fill:#4B4B4B;}
</style>
<g>
	<path class="st0" d="M500.362,64.191c-11.739-30.438-31.17-50.293-56.191-57.421c-7.002-1.991-14.114-3.006-21.137-3.006
		c-53.666,0-83.364,55.044-97.64,81.504c-5.192,9.626-10.294,19.425-15.242,29.27l3.525,1.655l2.395,1.249l-5.424-1.928l-0.837-0.32
		c0,0-0.006,0.012-0.01,0.016l-0.152-0.055c-12.57,24.134-25.57,49.086-40.274,71.698
		c-39.245,60.353-85.901,106.082-138.667,135.915l-4.649,2.584c-10.519,5.739-21.844,11.442-31.834,16.478
		c-6.828,3.443-13.65,6.89-20.419,10.404l-5.258,2.71c-16.767,8.604-37.631,19.308-52.813,37.547
		C3.927,406.675-1.53,423.786,0.37,440.673c1.821,16.22,10.349,30.774,24.664,42.071c17.118,13.5,40.106,21.463,70.28,24.356
		c7.893,0.754,16.007,1.136,24.114,1.136c32.626,0,66.874-5.883,104.702-17.981c39.354-12.586,76.446-30.418,110.249-52.998
		c66.525-44.433,119.931-108.253,150.378-179.708c18.399-43.176,27.561-85.4,27.233-125.503
		C511.779,106.129,507.974,83.932,500.362,64.191z M119.437,468.847c-6.898,0-13.751-0.32-20.37-0.956
		c-22.408-2.143-38.646-7.406-49.639-16.072c-4.089-3.225-9.131-8.542-9.92-15.553c-0.691-6.117,1.616-12.719,6.498-18.582
		c10.054-12.074,25.572-20.026,40.578-27.721l5.36-2.764c6.66-3.462,13.365-6.843,20.616-10.501
		c10.669-5.387,21.703-10.958,32.484-16.837l5.069-2.819c58.332-33.003,109.568-83.034,152.284-148.719
		c15.795-24.297,29.255-50.148,42.272-75.14l0.629-1.21c4.874-9.353,9.75-18.707,14.764-28.002
		c10.65-19.742,32.806-60.825,62.972-60.825c3.375,0,6.859,0.508,10.357,1.507c16,4.556,25.264,20.846,30.219,33.709
		c5.879,15.236,8.821,32.901,8.994,54.009c0.287,34.658-7.813,71.58-24.077,109.744c-27.486,64.499-75.794,122.17-136.026,162.39
		c-30.742,20.538-64.514,36.766-100.373,48.236C178.226,463.581,147.905,468.847,119.437,468.847z" style="fill: rgb(108, 173, 119);"></path>
	<path class="st0" d="M402.174,101.347c1.064,0.621,2.239,0.937,3.49,0.937c3.498,0,7.025-2.494,8.986-6.359
		c2.741-5.395,1.612-11.75-2.516-14.163c-1.064-0.624-2.239-0.937-3.49-0.937c-3.5,0-7.027,2.498-8.986,6.359
		C396.917,92.583,398.045,98.935,402.174,101.347z" style="fill: rgb(108, 173, 119);"></path>
	<path class="st0" d="M386.902,193.645c1.064,0.621,2.239,0.937,3.49,0.937c3.5,0,7.027-2.498,8.988-6.363
		c2.74-5.395,1.61-11.75-2.516-14.163c-1.064-0.621-2.239-0.937-3.49-0.937c-3.5,0-7.027,2.498-8.988,6.359
		C381.647,184.877,382.776,191.232,386.902,193.645z" style="fill: rgb(108, 173, 119);"></path>
	<path class="st0" d="M351.262,345.159c1.064,0.621,2.239,0.937,3.49,0.937c3.498,0,7.025-2.499,8.987-6.36
		c2.74-5.399,1.612-11.75-2.516-14.167c-1.064-0.621-2.239-0.937-3.49-0.937c-3.5,0-7.027,2.498-8.987,6.363
		C346.006,336.391,347.134,342.747,351.262,345.159z" style="fill: rgb(108, 173, 119);"></path>
	<path class="st0" d="M317.869,235.087c1.064,0.625,2.239,0.941,3.49,0.941c3.5,0,7.027-2.494,8.987-6.359
		c2.74-5.395,1.612-11.75-2.516-14.163c-1.064-0.624-2.239-0.937-3.488-0.937c-3.5,0-7.027,2.494-8.989,6.356
		C312.612,226.323,313.741,232.675,317.869,235.087z" style="fill: rgb(108, 173, 119);"></path>
	<path class="st0" d="M124.796,415.248c-1.064-0.624-2.239-0.937-3.49-0.937c-3.5,0-7.027,2.495-8.988,6.356
		c-2.74,5.399-1.61,11.75,2.516,14.163c1.064,0.625,2.239,0.941,3.49,0.941c3.5,0,7.027-2.494,8.988-6.359
		C130.051,424.016,128.923,417.661,124.796,415.248z" style="fill: rgb(108, 173, 119);"></path>
	<path class="st0" d="M260.979,397.915c-1.064-0.624-2.239-0.937-3.49-0.937c-3.498,0-7.025,2.494-8.986,6.355
		c-2.741,5.399-1.612,11.751,2.516,14.163c1.066,0.624,2.241,0.941,3.492,0.941c3.498,0,7.025-2.494,8.984-6.359
		C266.235,406.683,265.107,400.328,260.979,397.915z" style="fill: rgb(108, 173, 119);"></path>
	<path class="st0" d="M285.157,331.547c-1.064-0.621-2.239-0.937-3.49-0.937c-3.5,0-7.027,2.494-8.989,6.359
		c-2.74,5.395-1.61,11.75,2.516,14.163c1.064,0.625,2.239,0.937,3.49,0.937c3.5,0,7.027-2.495,8.989-6.356
		C290.412,340.315,289.283,333.963,285.157,331.547z" style="fill: rgb(108, 173, 119);"></path>
	<path class="st0" d="M214.135,342.625c-1.064-0.62-2.239-0.937-3.49-0.937c-3.5,0-7.027,2.494-8.987,6.359
		c-2.74,5.395-1.612,11.75,2.516,14.163c1.064,0.624,2.239,0.937,3.49,0.937c3.498,0,7.025-2.494,8.987-6.355
		C219.392,351.393,218.263,345.042,214.135,342.625z" style="fill: rgb(108, 173, 119);"></path>
	<path class="st0" d="M397.395,250.632c0.238,2.772,1.54,5.282,3.666,7.074c1.878,1.577,4.255,2.444,6.699,2.444
		c3.08,0,5.984-1.351,7.97-3.701c12.324-14.643,22.287-30.778,29.608-47.962c4.095-9.596,7.265-19.254,9.422-28.689
		c2.38-10.412,3.547-20.686,3.467-30.54c-0.047-5.614-0.441-10.712-1.206-15.584c-0.878-5.621-2.268-10.923-4.134-15.763
		c-1.538-3.99-5.442-6.668-9.713-6.668c-1.28,0-2.539,0.234-3.744,0.699c-5.356,2.065-8.034,8.1-5.971,13.456
		c1.333,3.455,2.34,7.324,2.994,11.493c0.603,3.873,0.916,7.98,0.954,12.547c0.066,8.237-0.925,16.892-2.945,25.722
		c-1.876,8.218-4.661,16.685-8.274,25.164c-6.518,15.291-15.395,29.661-26.384,42.711
		C398.014,245.163,397.157,247.861,397.395,250.632z" style="fill: rgb(108, 173, 119);"></path>
</g>
</svg>
